# xmcd
#
# Track frame offsets:
#	182
#	15317
#	25867
#	37700
#	46452
#	71660
#	83730
#	99615
#	121662
#	137435
#
# Disc length: 2053 seconds
#
# Revision: 11
# Processed by: cddbd v1.5.2PL0 Copyright (c) Steve Scherf et al.
# Submitted via: EZCDAudioConverter 2.1.5.1
#
DISCID=6d08030a
DTITLE=Various Artist - GREATEST COUNTRY DANCE RECORD EVER
DYEAR=1993
DGENRE=Country
TTITLE0=HIGHWAY 101 - THE BED YOU MADE FOR ME, THE
TTITLE1=BILLY HILL - TOO MUCH MONTH AT THE END OF THE MONEY
TTITLE2=HOLLY DUNN - THERE GOES MY HEART AGAIN
TTITLE3=LITTLE TEXAS - DOWN IN THE VALLEY
TTITLE4=MARK O'CONNOR - ORANGE BLOSSOM SPECIAL
TTITLE5=HANK WILLIAMS JR. - BORN TO BOOGIE
TTITLE6=TRAVIS TRITT - BURNIN' LOVE
TTITLE7=SOUTHERN PACIFIC - PINK CADILLAC
TTITLE8=SOUTHERN PACIFIC - MIDNIGHT HIGHWAY
TTITLE9=THE FORESTER SISTERS - THEIR HEARTS ARE DANCING
EXTD=
EXTT0=
EXTT1=
EXTT2=
EXTT3=
EXTT4=
EXTT5=
EXTT6=
EXTT7=
EXTT8=
EXTT9=
PLAYORDER=
